<svg xmlns="http://www.w3.org/2000/svg" viewBox="0 0 1120 624" width="1120" height="624" font-family="ui-monospace, Menlo, monospace">
<defs>
<pattern id="grid" width="28" height="28" patternUnits="userSpaceOnUse">
<path d="M28 0H0V28" fill="none" stroke="rgba(125,160,220,0.05)" stroke-width="1"/>
</pattern>
<linearGradient id="g0" gradientUnits="userSpaceOnUse" x1="120" y1="115" x2="120" y2="170"><stop offset="0" stop-color="#5eead4"/><stop offset="1" stop-color="#60a5fa"/></linearGradient><linearGradient id="g1" gradientUnits="userSpaceOnUse" x1="120" y1="210" x2="120" y2="265"><stop offset="0" stop-color="#60a5fa"/><stop offset="1" stop-color="#60a5fa"/></linearGradient><linearGradient id="g2" gradientUnits="userSpaceOnUse" x1="120" y1="305" x2="120" y2="360"><stop offset="0" stop-color="#60a5fa"/><stop offset="1" stop-color="#a78bfa"/></linearGradient><linearGradient id="g3" gradientUnits="userSpaceOnUse" x1="120" y1="400" x2="300" y2="455"><stop offset="0" stop-color="#a78bfa"/><stop offset="1" stop-color="#a78bfa"/></linearGradient><linearGradient id="g4" gradientUnits="userSpaceOnUse" x1="300" y1="400" x2="300" y2="455"><stop offset="0" stop-color="#5eead4"/><stop offset="1" stop-color="#a78bfa"/></linearGradient><linearGradient id="g5" gradientUnits="userSpaceOnUse" x1="430" y1="400" x2="300" y2="455"><stop offset="0" stop-color="#5eead4"/><stop offset="1" stop-color="#a78bfa"/></linearGradient><linearGradient id="g6" gradientUnits="userSpaceOnUse" x1="560" y1="400" x2="300" y2="455"><stop offset="0" stop-color="#5eead4"/><stop offset="1" stop-color="#a78bfa"/></linearGradient><linearGradient id="g7" gradientUnits="userSpaceOnUse" x1="300" y1="495" x2="300" y2="550"><stop offset="0" stop-color="#a78bfa"/><stop offset="1" stop-color="#f472b6"/></linearGradient><linearGradient id="g8" gradientUnits="userSpaceOnUse" x1="858" y1="115" x2="931" y2="170"><stop offset="0" stop-color="#5eead4"/><stop offset="1" stop-color="#60a5fa"/></linearGradient><linearGradient id="g9" gradientUnits="userSpaceOnUse" x1="1004" y1="115" x2="931" y2="170"><stop offset="0" stop-color="#5eead4"/><stop offset="1" stop-color="#60a5fa"/></linearGradient>
</defs>
<rect width="1120" height="624" fill="#070b12"/>
<rect y="46" width="1120" height="578" fill="url(#grid)"/>
<path d="M 120 115 C 120 142.5, 120 142.5, 120 163" fill="none" stroke="url(#g0)" stroke-width="2" opacity="0.9"/><path d="M 120 170 L 114 159.8 L 126 159.8 Z" fill="#60a5fa"/><path d="M 120 210 C 120 237.5, 120 237.5, 120 258" fill="none" stroke="url(#g1)" stroke-width="2" opacity="0.9"/><path d="M 120 265 L 114 254.8 L 126 254.8 Z" fill="#60a5fa"/><path d="M 120 305 C 120 332.5, 120 332.5, 120 353" fill="none" stroke="url(#g2)" stroke-width="2" opacity="0.9"/><path d="M 120 360 L 114 349.8 L 126 349.8 Z" fill="#a78bfa"/><path d="M 120 400 C 120 427.5, 300 427.5, 300 448" fill="none" stroke="url(#g3)" stroke-width="2" opacity="0.9"/><path d="M 300 455 L 294 444.8 L 306 444.8 Z" fill="#a78bfa"/><path d="M 300 400 C 300 427.5, 300 427.5, 300 448" fill="none" stroke="url(#g4)" stroke-width="2" opacity="0.9"/><path d="M 300 455 L 294 444.8 L 306 444.8 Z" fill="#a78bfa"/><path d="M 430 400 C 430 427.5, 300 427.5, 300 448" fill="none" stroke="url(#g5)" stroke-width="2" opacity="0.9"/><path d="M 300 455 L 294 444.8 L 306 444.8 Z" fill="#a78bfa"/><path d="M 560 400 C 560 427.5, 300 427.5, 300 448" fill="none" stroke="url(#g6)" stroke-width="2" opacity="0.9"/><path d="M 300 455 L 294 444.8 L 306 444.8 Z" fill="#a78bfa"/><path d="M 300 495 C 300 522.5, 300 522.5, 300 543" fill="none" stroke="url(#g7)" stroke-width="2" opacity="0.9"/><path d="M 300 550 L 294 539.8 L 306 539.8 Z" fill="#f472b6"/><path d="M 858 115 C 858 142.5, 931 142.5, 931 163" fill="none" stroke="url(#g8)" stroke-width="2" opacity="0.9"/><path d="M 931 170 L 925 159.8 L 937 159.8 Z" fill="#60a5fa"/><path d="M 1004 115 C 1004 142.5, 931 142.5, 931 163" fill="none" stroke="url(#g9)" stroke-width="2" opacity="0.9"/><path d="M 931 170 L 925 159.8 L 937 159.8 Z" fill="#60a5fa"/>
<rect x="70.5" y="72" width="99" height="46" rx="11" fill="#5eead4" opacity="0.22"/><rect x="73.5" y="75" width="93" height="40" rx="9" fill="#0e1626" fill-opacity="0.97" stroke="#5eead4" stroke-width="1.6"/><text x="120" y="95" fill="#f2f6fc" font-family="ui-monospace, SFMono-Regular, Menlo, Consolas, monospace" font-size="13" font-weight="600" text-anchor="middle" dominant-baseline="central">restore</text><rect x="258" y="72" width="84" height="46" rx="11" fill="#5eead4" opacity="0.22"/><rect x="261" y="75" width="78" height="40" rx="9" fill="#0e1626" fill-opacity="0.97" stroke="#5eead4" stroke-width="1.6"/><text x="300" y="95" fill="#f2f6fc" font-family="ui-monospace, SFMono-Regular, Menlo, Consolas, monospace" font-size="13" font-weight="600" text-anchor="middle" dominant-baseline="central">clean</text><rect x="416" y="72" width="108" height="46" rx="11" fill="#5eead4" opacity="0.22"/><rect x="419" y="75" width="102" height="40" rx="9" fill="#0e1626" fill-opacity="0.97" stroke="#5eead4" stroke-width="1.6"/><text x="470" y="95" fill="#f2f6fc" font-family="ui-monospace, SFMono-Regular, Menlo, Consolas, monospace" font-size="13" font-weight="600" text-anchor="middle" dominant-baseline="central">security</text><rect x="595" y="72" width="90" height="46" rx="11" fill="#5eead4" opacity="0.22"/><rect x="598" y="75" width="84" height="40" rx="9" fill="#0e1626" fill-opacity="0.97" stroke="#5eead4" stroke-width="1.6"/><text x="640" y="95" fill="#f2f6fc" font-family="ui-monospace, SFMono-Regular, Menlo, Consolas, monospace" font-size="13" font-weight="600" text-anchor="middle" dominant-baseline="central">review</text><rect x="808.5" y="72" width="99" height="46" rx="11" fill="#5eead4" opacity="0.22"/><rect x="811.5" y="75" width="93" height="40" rx="9" fill="#0e1626" fill-opacity="0.97" stroke="#5eead4" stroke-width="1.6"/><text x="858" y="95" fill="#f2f6fc" font-family="ui-monospace, SFMono-Regular, Menlo, Consolas, monospace" font-size="13" font-weight="600" text-anchor="middle" dominant-baseline="central">release</text><rect x="941" y="72" width="126" height="46" rx="11" fill="#5eead4" opacity="0.22"/><rect x="944" y="75" width="120" height="40" rx="9" fill="#0e1626" fill-opacity="0.97" stroke="#5eead4" stroke-width="1.6"/><text x="1004" y="95" fill="#f2f6fc" font-family="ui-monospace, SFMono-Regular, Menlo, Consolas, monospace" font-size="13" font-weight="600" text-anchor="middle" dominant-baseline="central">publishJsr</text><rect x="78" y="167" width="84" height="46" rx="11" fill="#60a5fa" opacity="0.22"/><rect x="81" y="170" width="78" height="40" rx="9" fill="#0e1626" fill-opacity="0.97" stroke="#60a5fa" stroke-width="1.6"/><text x="120" y="190" fill="#f2f6fc" font-family="ui-monospace, SFMono-Regular, Menlo, Consolas, monospace" font-size="13" font-weight="600" text-anchor="middle" dominant-baseline="central">check</text><rect x="881.5" y="167" width="99" height="46" rx="11" fill="#60a5fa" opacity="0.22"/><rect x="884.5" y="170" width="93" height="40" rx="9" fill="#0e1626" fill-opacity="0.97" stroke="#60a5fa" stroke-width="1.6"/><text x="931" y="190" fill="#f2f6fc" font-family="ui-monospace, SFMono-Regular, Menlo, Consolas, monospace" font-size="13" font-weight="600" text-anchor="middle" dominant-baseline="central">publish</text><rect x="78" y="262" width="84" height="46" rx="11" fill="#60a5fa" opacity="0.22"/><rect x="81" y="265" width="78" height="40" rx="9" fill="#0e1626" fill-opacity="0.97" stroke="#60a5fa" stroke-width="1.6"/><text x="120" y="285" fill="#f2f6fc" font-family="ui-monospace, SFMono-Regular, Menlo, Consolas, monospace" font-size="13" font-weight="600" text-anchor="middle" dominant-baseline="central">test</text><rect x="66" y="357" width="108" height="46" rx="11" fill="#a78bfa" opacity="0.22"/><rect x="69" y="360" width="102" height="40" rx="9" fill="#0e1626" fill-opacity="0.97" stroke="#a78bfa" stroke-width="1.6"/><text x="120" y="380" fill="#f2f6fc" font-family="ui-monospace, SFMono-Regular, Menlo, Consolas, monospace" font-size="13" font-weight="600" text-anchor="middle" dominant-baseline="central">coverage</text><rect x="255" y="357" width="90" height="46" rx="11" fill="#5eead4" opacity="0.22"/><rect x="258" y="360" width="84" height="40" rx="9" fill="#0e1626" fill-opacity="0.97" stroke="#5eead4" stroke-width="1.6"/><text x="300" y="380" fill="#f2f6fc" font-family="ui-monospace, SFMono-Regular, Menlo, Consolas, monospace" font-size="13" font-weight="600" text-anchor="middle" dominant-baseline="central">format</text><rect x="388" y="357" width="84" height="46" rx="11" fill="#5eead4" opacity="0.22"/><rect x="391" y="360" width="78" height="40" rx="9" fill="#0e1626" fill-opacity="0.97" stroke="#5eead4" stroke-width="1.6"/><text x="430" y="380" fill="#f2f6fc" font-family="ui-monospace, SFMono-Regular, Menlo, Consolas, monospace" font-size="13" font-weight="600" text-anchor="middle" dominant-baseline="central">lint</text><rect x="518" y="357" width="84" height="46" rx="11" fill="#5eead4" opacity="0.22"/><rect x="521" y="360" width="78" height="40" rx="9" fill="#0e1626" fill-opacity="0.97" stroke="#5eead4" stroke-width="1.6"/><text x="560" y="380" fill="#f2f6fc" font-family="ui-monospace, SFMono-Regular, Menlo, Consolas, monospace" font-size="13" font-weight="600" text-anchor="middle" dominant-baseline="central">spell</text><rect x="258" y="452" width="84" height="46" rx="11" fill="#a78bfa" opacity="0.22"/><rect x="261" y="455" width="78" height="40" rx="9" fill="#0e1626" fill-opacity="0.97" stroke="#a78bfa" stroke-width="1.6"/><text x="300" y="475" fill="#f2f6fc" font-family="ui-monospace, SFMono-Regular, Menlo, Consolas, monospace" font-size="13" font-weight="600" text-anchor="middle" dominant-baseline="central">ci</text><rect x="250.5" y="547" width="99" height="46" rx="11" fill="#f472b6" opacity="0.22"/><rect x="253.5" y="550" width="93" height="40" rx="9" fill="#0e1626" fill-opacity="0.97" stroke="#f472b6" stroke-width="1.6"/><text x="300" y="570" fill="#f2f6fc" font-family="ui-monospace, SFMono-Regular, Menlo, Consolas, monospace" font-size="13" font-weight="600" text-anchor="middle" dominant-baseline="central">default</text>
<rect width="1120" height="46" fill="#0a0f1a"/>
<line x1="0" y1="46" x2="1120" y2="46" stroke="#161d2b" stroke-width="1"/>
<text x="16" y="23" fill="#e6edf6" font-size="14" font-weight="700" dominant-baseline="central">Zuke build graph</text>
<text x="150" y="23" fill="#5eead4" font-size="13" dominant-baseline="central">15 targets</text>
<rect x="700" y="13" width="86" height="22" rx="6" fill="#111827" stroke="#243049"/><text x="743" y="24.5" fill="#c8d3e0" font-family="ui-monospace, Menlo, monospace" font-size="11" text-anchor="middle" dominant-baseline="central">Layout ▾</text>
<rect x="794" y="13" width="84" height="22" rx="6" fill="#111827" stroke="#243049"/><text x="836" y="24.5" fill="#c8d3e0" font-family="ui-monospace, Menlo, monospace" font-size="11" text-anchor="middle" dominant-baseline="central">Edges ▾</text>
<rect x="886" y="13" width="44" height="22" rx="6" fill="#111827" stroke="#243049"/><text x="908" y="24.5" fill="#c8d3e0" font-family="ui-monospace, Menlo, monospace" font-size="11" text-anchor="middle" dominant-baseline="central">Fit</text>
<rect x="936" y="13" width="52" height="22" rx="6" fill="#111827" stroke="#243049"/><text x="962" y="24.5" fill="#c8d3e0" font-family="ui-monospace, Menlo, monospace" font-size="11" text-anchor="middle" dominant-baseline="central">PNG</text>
<rect x="996" y="13" width="60" height="22" rx="6" fill="#111827" stroke="#243049"/><text x="1026" y="24.5" fill="#c8d3e0" font-family="ui-monospace, Menlo, monospace" font-size="11" text-anchor="middle" dominant-baseline="central">Reset</text>
</svg>
